<svg xmlns="http://www.w3.org/2000/svg" viewBox="0 0 217.92 50.77"><path d="M.27 13C10.23 6.69 21 .17 32.77.51c8.49.25 16.46 4.1 23.57 8.74S70 19.39 77.39 23.57a69.49 69.49 0 0 0 33.22 9c4.85.06 9.82-.43 14.2-2.51s8.1-6 9-10.75a8.17 8.17 0 0 0-.12-3.87c-1.4-4.54-7.92-5.77-11.88-3.14s-5.63 7.66-6 12.4a20.27 20.27 0 0 0 1.3 9.55c2.62 6 8.94 9.57 15.06 12a53.8 53.8 0 0 0 12.89 3.69c9.68 1.31 19.57-1.34 28.29-5.73s16.47-10.5 24.14-16.54l20.12-15.87" stroke="#000" stroke-miterlimit="10" stroke-dasharray="4 5" fill="none"/></svg>