<svg xmlns="http://www.w3.org/2000/svg" viewBox="0 0 543.4 750"><path d="M271.7 0C121.7 0 0 121.7 0 271.7 0 502.1 271.7 750 271.7 750s271.7-247.9 271.7-478.3C543.4 121.7 421.8 0 271.7 0z" fill="#3cc"/><path d="M419.1 138.8c-4.9-2-10.3-2.5-15.4-1.2-2.7-4.6-6.8-8.1-11.7-10.2-13.2-5.6-28.8 1.4-34.8 15.5-3.5 8.2-1.6 20 5.7 36.1 2.8 6 5.8 11.9 9.3 17.6L362 220.5c-2.3-.9-4.7-1.6-7.2-2.1-9.3-40.2-44.7-69.1-86-70h-3.9c-41.3.9-76.7 29.8-86 70-26.1 5.4-42.9 31-37.5 57.2 3.5 16.9 15.8 30.7 32.3 36.1l21.4 90.6c2.4 10.1 11.3 17.2 21.7 17.1H317c10.3 0 19.3-7.1 21.7-17.1l21.4-90.6c25.4-8.2 39.3-35.5 31-60.9-3.3-10.2-10-19-18.9-25.1l10.4-24.4c6.6-1.5 13.2-3.5 19.6-5.8 16.6-6 26.4-12.9 29.9-21.1 6-14 .2-30-13-35.6zm-91.6 260.9c-1.1 4.9-5.5 8.3-10.5 8.3h-13.9l12.8-67.4c.7-3.1-1.2-6.2-4.3-6.9-3.1-.7-6.2 1.2-6.9 4.3 0 .1-.1.3-.1.4L291.5 408h-18.8v-45.5c0-3.2-2.6-5.7-5.7-5.7s-5.7 2.6-5.7 5.7V408h-18.8l-13.2-69.5c-.4-3.2-3.2-5.4-6.4-5-3.2.4-5.4 3.2-5 6.4 0 .3.1.5.1.8l12.7 67.4h-13.8c-5 0-9.4-3.4-10.5-8.3L186.1 314h.9c16.1.6 31.4-6.8 40.9-19.9 15.7 21.6 45.9 26.4 67.5 10.7 4.1-3 7.7-6.6 10.7-10.7 9.1 12.6 23.6 20 39.1 19.9h2.7l-20.4 85.7zM382 266.4c-.4 20.3-17.1 36.5-37.5 36.2-12.1-.2-23.3-6.4-30-16.4-1.9-2.8-5-4.5-8.4-4.5-3.4 0-6.5 1.7-8.4 4.5-11.2 16.9-34.1 21.6-51 10.3-4.1-2.7-7.6-6.2-10.3-10.3-1.9-2.8-5-4.5-8.4-4.5-3.4 0-6.6 1.7-8.4 4.5-11.3 16.9-34.1 21.5-51.1 10.2-16.9-11.3-21.5-34.1-10.2-51.1 6-9 15.7-14.9 26.4-16.2 2.5-.3 4.5-2.2 5-4.7 6.7-36.8 38.4-63.8 75.8-64.6h3.4c37.4.9 69 27.8 75.7 64.6.4 2.5 2.5 4.4 5 4.7 2.8.3 5.5 1 8.2 1.9l-13.6 32c-1.2 2.9.1 6.3 3 7.5 2.9 1.2 6.3-.1 7.5-3l13.2-30.9c9 7.1 14.3 18.2 14.1 29.8zm39.6-96.3c-3.5 8.2-24.3 16.1-40 19.8-8.3-13.8-17.2-34.3-13.7-42.5 2.7-6.5 8.7-10.5 14.7-10.5 1.7 0 3.5.3 5 1 3.7 1.6 6.5 4.7 7.6 8.6 1 3 4.2 4.7 7.2 3.7.3-.1.5-.2.8-.3 3.6-1.8 7.7-2 11.5-.5 7.3 3.1 10.4 12.4 6.9 20.7z" fill="#fff"/></svg>